<svg width="206" height="48" viewBox="0 0 206 48" fill="none" xmlns="http://www.w3.org/2000/svg">
<path d="M27.2653 23.7266C28.3732 22.6898 29.9734 20.5551 28.9271 17.7495C28.7425 16.8956 28.0655 16.1637 27.3884 15.5538C26.3421 14.517 25.2343 14.151 23.7571 14.151H13.1094V33.8512H22.957C23.3878 33.8512 24.188 33.7902 25.4189 33.6072C26.3421 33.4852 27.0191 33.2412 27.5115 32.9363C28.2501 32.4484 28.8656 31.8384 29.2349 30.9846C29.6657 30.1917 29.8503 29.2768 29.8503 28.24C29.8503 26.9592 29.5426 25.9223 28.9271 25.1294C28.5578 24.5195 28.0039 24.0926 27.2653 23.7266ZM18.464 18.1155H21.4799C22.28 18.1155 22.8955 18.2984 23.2032 18.6034C23.5109 18.9083 23.6956 19.3963 23.6956 19.9452C23.6956 20.5551 23.5109 21.043 23.2032 21.348C22.8955 21.6529 22.28 21.8359 21.4183 21.8359H18.464V18.1155ZM23.8187 29.0329C23.4494 29.3988 22.7724 29.5818 21.8491 29.5818H18.464V25.6174H21.8491C22.8339 25.6174 23.4494 25.8003 23.8802 26.1663C24.2495 26.5322 24.4341 26.9592 24.4341 27.5691C24.3726 28.179 24.188 28.6669 23.8187 29.0329Z" fill="#F5678D"/>
<path d="M39.5751 14.1509H34.3435V33.851H50.0997V28.9717H39.5751V14.1509Z" fill="#F5678D"/>
<path d="M60.686 14.1509L53.2388 33.851H59.5166L63.0248 24.0314L66.5331 33.851H72.7494L65.2406 14.1509H60.686Z" fill="#F5678D"/>
<path d="M82.2274 13.541C78.8423 13.541 75.8264 15.1268 73.9185 17.5664L78.2883 20.799C79.2116 19.6401 80.6272 18.9692 82.2274 18.9692C84.997 18.9692 87.2743 21.2259 87.2743 23.9705C87.2743 26.7151 84.997 28.9718 82.2274 28.9718C81.058 28.9718 80.0117 28.6058 79.15 27.9349L75.1494 31.6554C76.9958 33.3631 79.5193 34.4 82.2274 34.4C88.0129 34.4 92.752 29.7037 92.752 23.9705C92.752 18.2373 88.0744 13.541 82.2274 13.541Z" fill="#F5678D"/>
<path d="M113.74 14.1509H107.216L101.553 20.6769V14.2729H96.2603V33.851H101.553V28.4228V27.325L106.723 33.851H113.494L105.8 23.4215L113.74 14.1509Z" fill="#F5678D"/>
<path d="M192.829 14.1509H186.305L180.642 20.6769V14.2729H175.349V33.851H180.642V28.4228V27.325L185.812 33.851H192.582L184.889 23.4215L192.829 14.1509Z" fill="#F5678D"/>
<path d="M131.65 14.1509H122.787V21.3478V27.6909V33.851H127.957V27.6909H131.65C135.712 27.6909 138.974 24.6413 138.974 20.9209C138.974 17.2004 135.651 14.1509 131.65 14.1509ZM131.466 22.9336H128.142V18.9082H131.466C132.573 18.9082 133.497 19.8231 133.497 20.9209C133.497 22.0187 132.573 22.9336 131.466 22.9336Z" fill="#F5678D"/>
<path d="M147.899 14.1509H142.544V33.851H147.899V14.1509Z" fill="#F5678D"/>
<path d="M165.194 14.1509L158.239 25.1903V14.1509H152.761V33.851H158.239L165.194 23.5435V33.851H170.671V14.1509H165.194Z" fill="#F5678D"/>
<path d="M0 0V48H206V0H0ZM201.076 43.1207H4.92381V4.87929H201.076V43.1207Z" fill="#F5678D"/>
</svg>
